<?xml version="1.0" encoding="utf-8" standalone="no"?>
<!DOCTYPE svg PUBLIC "-//W3C//DTD SVG 1.1//EN"
  "http://www.w3.org/Graphics/SVG/1.1/DTD/svg11.dtd">
<!-- Created with matplotlib (https://matplotlib.org/) -->
<svg height="278.217384pt" version="1.1" viewBox="0 0 393.5018 278.217384" width="393.5018pt" xmlns="http://www.w3.org/2000/svg" xmlns:xlink="http://www.w3.org/1999/xlink">
 <metadata>
  <rdf:RDF xmlns:cc="http://creativecommons.org/ns#" xmlns:dc="http://purl.org/dc/elements/1.1/" xmlns:rdf="http://www.w3.org/1999/02/22-rdf-syntax-ns#">
   <cc:Work>
    <dc:type rdf:resource="http://purl.org/dc/dcmitype/StillImage"/>
    <dc:date>2021-04-12T23:55:38.024829</dc:date>
    <dc:format>image/svg+xml</dc:format>
    <dc:creator>
     <cc:Agent>
      <dc:title>Matplotlib v3.3.2, https://matplotlib.org/</dc:title>
     </cc:Agent>
    </dc:creator>
   </cc:Work>
  </rdf:RDF>
 </metadata>
 <defs>
  <style type="text/css">*{stroke-linecap:butt;stroke-linejoin:round;}</style>
 </defs>
 <g id="figure_1">
  <g id="patch_1">
   <path d="M 0 278.217384 
L 393.5018 278.217384 
L 393.5018 0 
L 0 0 
z
" style="fill:none;"/>
  </g>
  <g id="axes_1">
   <g id="patch_2">
    <path d="M 51.5018 239.193876 
L 386.3018 239.193876 
L 386.3018 21.753876 
L 51.5018 21.753876 
z
" style="fill:none;"/>
   </g>
   <g id="matplotlib.axis_1">
    <g id="xtick_1">
     <g id="line2d_1">
      <path clip-path="url(#p7b5447ea48)" d="M 91.33755 239.193876 
L 91.33755 21.753876 
" style="fill:none;stroke:#696969;stroke-linecap:square;stroke-width:0.8;"/>
     </g>
     <g id="line2d_2">
      <defs>
       <path d="M 0 0 
L 0 3.5 
" id="mc08442d132" style="stroke:#ffffff;stroke-width:0.8;"/>
      </defs>
      <g>
       <use style="fill:#ffffff;stroke:#ffffff;stroke-width:0.8;" x="91.33755" xlink:href="#mc08442d132" y="239.193876"/>
      </g>
     </g>
     <g id="text_1">
      <!-- $\mathdefault{−0.12}$ -->
      <g style="fill:#ffffff;" transform="translate(78.523155 253.322113)scale(0.1 -0.1)">
       <defs>
        <path d="M 65.90625 23 
C 67.59375 23 69.40625 23 69.40625 25 
C 69.40625 27 67.59375 27 65.90625 27 
L 11.796875 27 
C 10.09375 27 8.296875 27 8.296875 25 
C 8.296875 23 10.09375 23 11.796875 23 
z
" id="CMSY10-0"/>
        <path d="M 26.296875 69 
C 10.796875 69 2.90625 56.6875 2.90625 32.4375 
C 2.90625 20.71875 5 10.609375 8.5 5.703125 
C 12 0.796875 17.59375 -2 23.796875 -2 
C 38.90625 -2 46.5 11 46.5 36.640625 
C 46.5 58.578125 40 69 26.296875 69 
z
M 24.5 65.484375 
C 34.203125 65.484375 38.09375 55.671875 38.09375 31.640625 
C 38.09375 10.3125 34.296875 1.5 25.09375 1.5 
C 15.40625 1.5 11.296875 11.609375 11.296875 36.046875 
C 11.296875 57.1875 15 65.484375 24.5 65.484375 
z
" id="URW_Palladio_L_Roman-48"/>
        <path d="M 12.40625 10.59375 
C 9.40625 10.59375 6.703125 7.796875 6.703125 4.796875 
C 6.703125 1.796875 9.40625 -1 12.296875 -1 
C 15.5 -1 18.296875 1.6875 18.296875 4.796875 
C 18.296875 7.796875 15.5 10.59375 12.40625 10.59375 
z
" id="URW_Palladio_L_Roman-46"/>
        <path d="M 6.703125 55.796875 
L 7.703125 55.796875 
L 20.59375 61.59375 
C 20.703125 61.703125 20.796875 61.703125 20.90625 61.703125 
C 21.5 61.703125 21.703125 60.796875 21.703125 58.390625 
L 21.703125 9.890625 
C 21.703125 4.6875 20.59375 3.59375 15.203125 3.296875 
L 9.59375 3 
L 9.59375 0 
C 25 0 25 0 26.09375 0 
C 27.40625 0 29.59375 0 33 -0.109375 
C 34.203125 0.09375 37.703125 0.09375 41.796875 0 
L 41.796875 3 
L 36.59375 3.296875 
C 31.09375 3.578125 30.09375 4.671875 30.09375 9.8125 
L 30.09375 68.484375 
L 28.703125 69 
C 22.203125 65.609375 15.09375 62.640625 6 59.484375 
z
" id="URW_Palladio_L_Roman-49"/>
        <path d="M 1.59375 2.59375 
L 1.59375 0 
C 20.296875 0 20.296875 0 23.90625 0 
C 27.5 0.296875 27.5 0.296875 46.796875 0 
C 46.59375 2.09375 46.59375 3.09375 46.59375 4.484375 
C 46.59375 5.78125 46.59375 6.78125 46.796875 8.96875 
C 35.296875 8.46875 30.703125 8.375 12.203125 7.96875 
L 30.40625 27.203125 
C 40.09375 37.46875 43.09375 42.953125 43.09375 50.4375 
C 43.09375 61.890625 35.296875 69 22.59375 69 
C 15.40625 69 10.5 66.984375 5.59375 61.984375 
L 3.90625 48.4375 
L 6.796875 48.4375 
L 8.09375 53.03125 
C 9.703125 58.796875 13.296875 61.296875 20 61.296875 
C 28.59375 61.296875 34.09375 55.90625 34.09375 47.4375 
C 34.09375 39.96875 29.90625 32.59375 18.59375 20.625 
z
" id="URW_Palladio_L_Roman-50"/>
       </defs>
       <use transform="scale(1.038107)" xlink:href="#CMSY10-0"/>
       <use transform="translate(81.941696 0)scale(0.996264)" xlink:href="#URW_Palladio_L_Roman-48"/>
       <use transform="translate(131.754897 0)scale(0.996264)" xlink:href="#URW_Palladio_L_Roman-46"/>
       <use transform="translate(156.661497 0)scale(0.996264)" xlink:href="#URW_Palladio_L_Roman-49"/>
       <use transform="translate(206.474698 0)scale(0.996264)" xlink:href="#URW_Palladio_L_Roman-50"/>
      </g>
     </g>
    </g>
    <g id="xtick_2">
     <g id="line2d_3">
      <path clip-path="url(#p7b5447ea48)" d="M 137.961895 239.193876 
L 137.961895 21.753876 
" style="fill:none;stroke:#696969;stroke-linecap:square;stroke-width:0.8;"/>
     </g>
     <g id="line2d_4">
      <g>
       <use style="fill:#ffffff;stroke:#ffffff;stroke-width:0.8;" x="137.961895" xlink:href="#mc08442d132" y="239.193876"/>
      </g>
     </g>
     <g id="text_2">
      <!-- $\mathdefault{−0.10}$ -->
      <g style="fill:#ffffff;" transform="translate(125.147499 253.322113)scale(0.1 -0.1)">
       <use transform="scale(1.038107)" xlink:href="#CMSY10-0"/>
       <use transform="translate(81.941696 0)scale(0.996264)" xlink:href="#URW_Palladio_L_Roman-48"/>
       <use transform="translate(131.754897 0)scale(0.996264)" xlink:href="#URW_Palladio_L_Roman-46"/>
       <use transform="translate(156.661497 0)scale(0.996264)" xlink:href="#URW_Palladio_L_Roman-49"/>
       <use transform="translate(206.474698 0)scale(0.996264)" xlink:href="#URW_Palladio_L_Roman-48"/>
      </g>
     </g>
    </g>
    <g id="xtick_3">
     <g id="line2d_5">
      <path clip-path="url(#p7b5447ea48)" d="M 184.58624 239.193876 
L 184.58624 21.753876 
" style="fill:none;stroke:#696969;stroke-linecap:square;stroke-width:0.8;"/>
     </g>
     <g id="line2d_6">
      <g>
       <use style="fill:#ffffff;stroke:#ffffff;stroke-width:0.8;" x="184.58624" xlink:href="#mc08442d132" y="239.193876"/>
      </g>
     </g>
     <g id="text_3">
      <!-- $\mathdefault{−0.08}$ -->
      <g style="fill:#ffffff;" transform="translate(171.771844 253.322113)scale(0.1 -0.1)">
       <defs>
        <path d="M 16.796875 34.546875 
C 12.703125 32.640625 11 31.546875 8.796875 29.4375 
C 5 25.625 3 21.125 3 15.921875 
C 3 5.59375 11.296875 -2 22.59375 -2 
C 35.59375 -2 46.40625 8.203125 46.40625 20.625 
C 46.40625 28.640625 42.703125 32.9375 31.296875 38.15625 
C 40.40625 44.359375 43.59375 48.5625 43.59375 54.578125 
C 43.59375 63.1875 36.5 69 25.90625 69 
C 14 69 5.296875 61.390625 5.296875 50.875 
C 5.296875 44.0625 8 40.25 16.796875 34.546875 
z
M 28.40625 29.53125 
C 34.703125 26.734375 38.5 21.828125 38.5 16.421875 
C 38.5 8 32.203125 1.390625 24.09375 1.390625 
C 15.59375 1.390625 10.09375 7.40625 10.09375 16.71875 
C 10.09375 24.03125 13 28.640625 20.40625 33.140625 
z
M 22.296875 42.359375 
C 16 45.46875 12.796875 49.46875 12.796875 54.46875 
C 12.796875 61.09375 17.59375 65.59375 24.703125 65.59375 
C 32 65.59375 36.796875 60.78125 36.796875 53.46875 
C 36.796875 47.765625 34.296875 43.859375 27.796875 39.65625 
z
" id="URW_Palladio_L_Roman-56"/>
       </defs>
       <use transform="scale(1.038107)" xlink:href="#CMSY10-0"/>
       <use transform="translate(81.941696 0)scale(0.996264)" xlink:href="#URW_Palladio_L_Roman-48"/>
       <use transform="translate(131.754897 0)scale(0.996264)" xlink:href="#URW_Palladio_L_Roman-46"/>
       <use transform="translate(156.661497 0)scale(0.996264)" xlink:href="#URW_Palladio_L_Roman-48"/>
       <use transform="translate(206.474698 0)scale(0.996264)" xlink:href="#URW_Palladio_L_Roman-56"/>
      </g>
     </g>
    </g>
    <g id="xtick_4">
     <g id="line2d_7">
      <path clip-path="url(#p7b5447ea48)" d="M 231.210584 239.193876 
L 231.210584 21.753876 
" style="fill:none;stroke:#696969;stroke-linecap:square;stroke-width:0.8;"/>
     </g>
     <g id="line2d_8">
      <g>
       <use style="fill:#ffffff;stroke:#ffffff;stroke-width:0.8;" x="231.210584" xlink:href="#mc08442d132" y="239.193876"/>
      </g>
     </g>
     <g id="text_4">
      <!-- $\mathdefault{−0.06}$ -->
      <g style="fill:#ffffff;" transform="translate(218.396188 253.322113)scale(0.1 -0.1)">
       <defs>
        <path d="M 41.59375 66.984375 
L 37.90625 68.6875 
C 28.296875 65.515625 24.203125 63.53125 19.09375 59.1875 
C 8.796875 50.578125 3.203125 38.484375 3.203125 24.765625 
C 3.203125 8.21875 11.203125 -2 24.09375 -2 
C 37.09375 -2 46.796875 8.3125 46.796875 21.953125 
C 46.796875 33.484375 39.90625 41 29.296875 41 
C 24.296875 41 21.296875 39.6875 15.40625 34.984375 
C 14.296875 34.09375 14.203125 33.984375 13.09375 33.1875 
C 15.203125 51.171875 23.59375 60.859375 41.59375 66.203125 
z
M 25.5 34.984375 
C 33.09375 34.984375 38.203125 28.375 38.203125 18.4375 
C 38.203125 8.015625 33.09375 1.296875 25.40625 1.296875 
C 16.90625 1.296875 12.296875 8.609375 12.296875 22.046875 
C 12.296875 25.5625 12.703125 27.46875 13.796875 29.171875 
C 16 32.578125 20.703125 34.984375 25.5 34.984375 
z
" id="URW_Palladio_L_Roman-54"/>
       </defs>
       <use transform="scale(1.038107)" xlink:href="#CMSY10-0"/>
       <use transform="translate(81.941696 0)scale(0.996264)" xlink:href="#URW_Palladio_L_Roman-48"/>
       <use transform="translate(131.754897 0)scale(0.996264)" xlink:href="#URW_Palladio_L_Roman-46"/>
       <use transform="translate(156.661497 0)scale(0.996264)" xlink:href="#URW_Palladio_L_Roman-48"/>
       <use transform="translate(206.474698 0)scale(0.996264)" xlink:href="#URW_Palladio_L_Roman-54"/>
      </g>
     </g>
    </g>
    <g id="xtick_5">
     <g id="line2d_9">
      <path clip-path="url(#p7b5447ea48)" d="M 277.834929 239.193876 
L 277.834929 21.753876 
" style="fill:none;stroke:#696969;stroke-linecap:square;stroke-width:0.8;"/>
     </g>
     <g id="line2d_10">
      <g>
       <use style="fill:#ffffff;stroke:#ffffff;stroke-width:0.8;" x="277.834929" xlink:href="#mc08442d132" y="239.193876"/>
      </g>
     </g>
     <g id="text_5">
      <!-- $\mathdefault{−0.04}$ -->
      <g style="fill:#ffffff;" transform="translate(265.020533 253.322113)scale(0.1 -0.1)">
       <defs>
        <path d="M 28 18 
L 28 10.6875 
C 28 4.84375 26.90625 3.484375 22 3.28125 
L 15.796875 3 
L 15.796875 0 
C 29.09375 0 29.09375 0 31.5 0 
C 33.90625 0.296875 33.90625 0.296875 47.203125 0 
L 47.203125 3 
L 42.40625 3.28125 
C 37.5 3.578125 36.40625 4.84375 36.40625 10.6875 
L 36.40625 18 
C 42.296875 18 44.40625 17.890625 47.203125 17.609375 
L 47.203125 24.6875 
C 42.5 24.296875 40.59375 24.296875 39.09375 24.390625 
L 38.796875 24.390625 
L 36.40625 24.390625 
L 36.40625 38.203125 
C 36.40625 55.875 36.59375 64.40625 37.09375 68.484375 
L 35.90625 69 
L 28.5 66.296875 
L 0.203125 20.296875 
L 1.296875 18 
z
M 28 24.390625 
L 6.5 24.390625 
L 28 59.34375 
z
" id="URW_Palladio_L_Roman-52"/>
       </defs>
       <use transform="scale(1.038107)" xlink:href="#CMSY10-0"/>
       <use transform="translate(81.941696 0)scale(0.996264)" xlink:href="#URW_Palladio_L_Roman-48"/>
       <use transform="translate(131.754897 0)scale(0.996264)" xlink:href="#URW_Palladio_L_Roman-46"/>
       <use transform="translate(156.661497 0)scale(0.996264)" xlink:href="#URW_Palladio_L_Roman-48"/>
       <use transform="translate(206.474698 0)scale(0.996264)" xlink:href="#URW_Palladio_L_Roman-52"/>
      </g>
     </g>
    </g>
    <g id="xtick_6">
     <g id="line2d_11">
      <path clip-path="url(#p7b5447ea48)" d="M 324.459273 239.193876 
L 324.459273 21.753876 
" style="fill:none;stroke:#696969;stroke-linecap:square;stroke-width:0.8;"/>
     </g>
     <g id="line2d_12">
      <g>
       <use style="fill:#ffffff;stroke:#ffffff;stroke-width:0.8;" x="324.459273" xlink:href="#mc08442d132" y="239.193876"/>
      </g>
     </g>
     <g id="text_6">
      <!-- $\mathdefault{−0.02}$ -->
      <g style="fill:#ffffff;" transform="translate(311.644878 253.322113)scale(0.1 -0.1)">
       <use transform="scale(1.038107)" xlink:href="#CMSY10-0"/>
       <use transform="translate(81.941696 0)scale(0.996264)" xlink:href="#URW_Palladio_L_Roman-48"/>
       <use transform="translate(131.754897 0)scale(0.996264)" xlink:href="#URW_Palladio_L_Roman-46"/>
       <use transform="translate(156.661497 0)scale(0.996264)" xlink:href="#URW_Palladio_L_Roman-48"/>
       <use transform="translate(206.474698 0)scale(0.996264)" xlink:href="#URW_Palladio_L_Roman-50"/>
      </g>
     </g>
    </g>
    <g id="xtick_7">
     <g id="line2d_13">
      <path clip-path="url(#p7b5447ea48)" d="M 371.083618 239.193876 
L 371.083618 21.753876 
" style="fill:none;stroke:#696969;stroke-linecap:square;stroke-width:0.8;"/>
     </g>
     <g id="line2d_14">
      <g>
       <use style="fill:#ffffff;stroke:#ffffff;stroke-width:0.8;" x="371.083618" xlink:href="#mc08442d132" y="239.193876"/>
      </g>
     </g>
     <g id="text_7">
      <!-- $\mathdefault{0.00}$ -->
      <g style="fill:#ffffff;" transform="translate(362.366308 253.322113)scale(0.1 -0.1)">
       <use transform="scale(0.996264)" xlink:href="#URW_Palladio_L_Roman-48"/>
       <use transform="translate(49.8132 0)scale(0.996264)" xlink:href="#URW_Palladio_L_Roman-46"/>
       <use transform="translate(74.719801 0)scale(0.996264)" xlink:href="#URW_Palladio_L_Roman-48"/>
       <use transform="translate(124.533001 0)scale(0.996264)" xlink:href="#URW_Palladio_L_Roman-48"/>
      </g>
     </g>
    </g>
    <g id="text_8">
     <!-- $t$ (MeV)\textsuperscript{2} -->
     <g style="fill:#ffffff;" transform="translate(200.030231 268.207973)scale(0.1 -0.1)">
      <defs>
       <path d="M 12.5 38.890625 
L 6.90625 10.59375 
C 6.796875 9.890625 6.703125 9.6875 6.40625 8.5 
C 5.796875 5.6875 5.59375 4.1875 5.59375 3 
C 5.59375 0.5 6.703125 -1 8.59375 -1 
C 12.09375 -1 15.59375 1 23.40625 7.296875 
L 24.90625 8.5 
L 26.5 9.796875 
L 25.5 11.59375 
L 21 8.5 
C 18.09375 6.5 16.09375 5.5 15 5.5 
C 14.09375 5.5 13.59375 6.296875 13.59375 7.5 
C 13.59375 10.09375 15 18.1875 17.90625 32.6875 
L 19.203125 38.890625 
L 29.90625 38.890625 
L 31 43.890625 
C 27.203125 43.5 23.796875 43.296875 20 43.296875 
C 21.59375 52.703125 22.703125 57.59375 24.5 63 
L 23.40625 64.5 
C 21.40625 63.296875 18.703125 62.09375 15.59375 60.890625 
L 13.09375 43.890625 
C 8.703125 41.796875 6.09375 40.6875 4.296875 40.1875 
L 4.09375 38.890625 
z
" id="URW_Palladio_L_Italic-116"/>
       <path d="M 30.09375 -19.40625 
C 22.90625 -10.515625 20.296875 -5.703125 17.703125 3.296875 
C 15.59375 10.5 14.59375 18.09375 14.59375 26.59375 
C 14.59375 34.890625 15.59375 42 17.5 48.5 
C 20.09375 56.796875 22.796875 61.5 30.09375 70 
L 28.203125 72.59375 
C 17.796875 63.296875 13.703125 57.796875 9.90625 48 
C 7.296875 41.296875 6 34.1875 6 26.59375 
C 6 15.890625 8.5 5.796875 13.296875 -3.203125 
C 16.796875 -9.90625 20 -13.8125 28.203125 -21.515625 
z
" id="URW_Palladio_L_Roman-40"/>
       <path d="M 73.203125 12.296875 
C 73.203125 4.390625 72.796875 3.6875 68.09375 3.296875 
L 64.703125 3 
L 64.703125 0 
C 69.296875 -0.109375 72.296875 0 77.5 0 
C 83.09375 0.296875 86.703125 0.1875 92.59375 0 
L 92.59375 3 
L 87.796875 3.296875 
C 83.203125 3.59375 82.703125 4.375 82.703125 12.21875 
L 82.703125 56.765625 
C 82.703125 64.5 83.203125 65.390625 87.796875 65.6875 
L 92 65.984375 
L 92 69 
C 84.40625 68.6875 84.40625 68.6875 82.703125 68.6875 
C 81.203125 68.6875 81.203125 68.6875 73.203125 69 
L 47 13.8125 
L 20.59375 69 
C 12.59375 68.6875 12.59375 68.6875 11.09375 68.6875 
C 9.59375 68.6875 9.59375 68.6875 1.59375 69 
L 1.59375 65.984375 
L 6 65.6875 
C 10.59375 65.390625 11.09375 64.5 11.09375 56.765625 
L 11.09375 12.21875 
C 11.09375 4.484375 10.59375 3.59375 6 3.296875 
L 1.59375 3 
L 1.59375 0 
C 11.5 0 11.5 0 13.203125 0 
C 14.703125 0.296875 14.703125 0.296875 25.203125 0 
L 25.203125 3 
L 20.796875 3.296875 
C 16.203125 3.59375 15.703125 4.5 15.703125 12.296875 
L 15.703125 58.09375 
L 43.59375 -1 
L 45.59375 -1 
C 46.296875 0.5 46.90625 2.09375 47.5 3.59375 
C 49.09375 7.5 50.296875 10.296875 51 11.6875 
L 68.796875 49.5 
C 70.203125 52.390625 71.40625 54.703125 73.203125 58.09375 
z
" id="URW_Palladio_L_Roman-77"/>
       <path d="M 43.703125 6.984375 
L 42.40625 7.984375 
C 36 4.1875 33.703125 3.296875 29.40625 3.296875 
C 22.90625 3.296875 17.5 6.1875 14.703125 11.09375 
C 12.796875 14.390625 12.09375 17.1875 11.90625 23 
L 26.5 23 
C 33.40625 23 37.703125 23.296875 44.59375 24.390625 
C 44.703125 25.796875 44.796875 26.6875 44.796875 27.90625 
C 44.796875 39.46875 37.40625 47 26.203125 47 
C 22.5 47 18.203125 45.6875 14.09375 43.296875 
C 5.90625 38.5625 2.59375 32.328125 2.59375 21.890625 
C 2.59375 15.59375 4.09375 10.1875 6.796875 6.390625 
C 10.796875 1.09375 17.5 -2 25 -2 
C 28.703125 -2 32.40625 -1.203125 36.5 0.59375 
C 39.203125 1.6875 41.296875 3 41.703125 3.59375 
z
M 35.90625 26.6875 
C 30.703125 26.5 28.296875 26.390625 24.703125 26.390625 
C 20.09375 26.390625 17.5 26.5 12.09375 27 
C 12.09375 31.71875 12.5 33.9375 13.796875 36.546875 
C 15.90625 40.984375 20.203125 43.6875 25 43.6875 
C 28.296875 43.6875 30.90625 42.390625 32.703125 39.671875 
C 34.90625 36.34375 35.59375 33.4375 35.90625 26.6875 
z
" id="URW_Palladio_L_Roman-101"/>
       <path d="M 27.40625 66 
L 27.40625 69 
C 16.40625 68.6875 16.40625 68.6875 14.09375 68.6875 
C 11.796875 68.6875 11.796875 68.6875 0.796875 69 
L 0.796875 66 
L 4.40625 65.703125 
C 6.5 65.5 7.5 64.59375 8.796875 61.609375 
L 27.59375 15.46875 
C 30.703125 7.875 31.90625 4.390625 33.40625 -1 
L 38.40625 -1 
C 40.296875 5.1875 41.5 8.484375 44.796875 16.46875 
L 62.203125 58.515625 
C 64.5 63.90625 65.59375 65.390625 67.59375 65.703125 
L 70.59375 66 
L 70.59375 69 
L 59.796875 68.6875 
C 58 68.6875 55.703125 68.796875 52.796875 68.890625 
C 52.296875 68.890625 50.59375 68.890625 49 69 
L 49 66 
L 54.203125 65.703125 
C 56.40625 65.59375 57.703125 64.59375 57.703125 63.09375 
C 57.703125 62.109375 57.40625 60.703125 56.796875 59.203125 
L 38.5 11.96875 
L 18.796875 62.609375 
C 18.703125 63 18.59375 63.296875 18.59375 63.703125 
C 18.59375 64.90625 19.796875 65.59375 21.796875 65.703125 
z
" id="URW_Palladio_L_Roman-86"/>
       <path d="M 5.09375 -21.515625 
C 12 -15.015625 14.90625 -11.703125 18 -6.8125 
C 24.09375 2.890625 27.296875 14.5 27.296875 26.5 
C 27.296875 34.1875 26 41.296875 23.40625 48 
C 19.59375 57.703125 15.5 63.203125 5.09375 72.59375 
L 3.203125 70 
C 10.5 61.390625 13.203125 56.703125 15.703125 48.5 
C 17.703125 42 18.703125 34.890625 18.703125 26.59375 
C 18.703125 18.09375 17.703125 10.5 15.59375 3.296875 
C 13 -5.703125 10.40625 -10.515625 3.203125 -19.40625 
z
" id="URW_Palladio_L_Roman-41"/>
      </defs>
      <use transform="scale(0.996264)" xlink:href="#URW_Palladio_L_Italic-116"/>
      <use transform="translate(59.326582 0)scale(0.996264)" xlink:href="#URW_Palladio_L_Roman-40"/>
      <use transform="translate(92.501812 0)scale(0.996264)" xlink:href="#URW_Palladio_L_Roman-77"/>
      <use transform="translate(186.748013 0)scale(0.996264)" xlink:href="#URW_Palladio_L_Roman-101"/>
      <use transform="translate(234.468309 0)scale(0.996264)" xlink:href="#URW_Palladio_L_Roman-86"/>
      <use transform="translate(306.398293 0)scale(0.996264)" xlink:href="#URW_Palladio_L_Roman-41"/>
      <use transform="translate(339.573523 36.164371)scale(0.757155)" xlink:href="#URW_Palladio_L_Roman-50"/>
     </g>
    </g>
   </g>
   <g id="matplotlib.axis_2">
    <g id="ytick_1">
     <g id="line2d_15">
      <path clip-path="url(#p7b5447ea48)" d="M 51.5018 218.493591 
L 386.3018 218.493591 
" style="fill:none;stroke:#696969;stroke-linecap:square;stroke-width:0.8;"/>
     </g>
     <g id="line2d_16">
      <defs>
       <path d="M 0 0 
L -3.5 0 
" id="mb5ef07764a" style="stroke:#ffffff;stroke-width:0.8;"/>
      </defs>
      <g>
       <use style="fill:#ffffff;stroke:#ffffff;stroke-width:0.8;" x="51.5018" xlink:href="#mb5ef07764a" y="218.493591"/>
      </g>
     </g>
     <g id="text_9">
      <!-- $\mathdefault{0.006}$ -->
      <g style="fill:#ffffff;" transform="translate(22.08586 222.05771)scale(0.1 -0.1)">
       <use transform="scale(0.996264)" xlink:href="#URW_Palladio_L_Roman-48"/>
       <use transform="translate(49.8132 0)scale(0.996264)" xlink:href="#URW_Palladio_L_Roman-46"/>
       <use transform="translate(74.719801 0)scale(0.996264)" xlink:href="#URW_Palladio_L_Roman-48"/>
       <use transform="translate(124.533001 0)scale(0.996264)" xlink:href="#URW_Palladio_L_Roman-48"/>
       <use transform="translate(174.346202 0)scale(0.996264)" xlink:href="#URW_Palladio_L_Roman-54"/>
      </g>
     </g>
    </g>
    <g id="ytick_2">
     <g id="line2d_17">
      <path clip-path="url(#p7b5447ea48)" d="M 51.5018 188.682036 
L 386.3018 188.682036 
" style="fill:none;stroke:#696969;stroke-linecap:square;stroke-width:0.8;"/>
     </g>
     <g id="line2d_18">
      <g>
       <use style="fill:#ffffff;stroke:#ffffff;stroke-width:0.8;" x="51.5018" xlink:href="#mb5ef07764a" y="188.682036"/>
      </g>
     </g>
     <g id="text_10">
      <!-- $\mathdefault{0.007}$ -->
      <g style="fill:#ffffff;" transform="translate(22.08586 192.246155)scale(0.1 -0.1)">
       <defs>
        <path d="M 5.59375 1.296875 
L 6.5 0 
C 10.40625 0 10.40625 0 11.09375 0 
C 11.796875 0.296875 11.796875 0.296875 15.703125 0 
C 19.90625 10.9375 24.796875 21.390625 31.40625 33.453125 
L 49.703125 66.484375 
L 49.703125 69.5 
C 38.90625 69.09375 35.40625 69 27.296875 69 
C 20 69 15.09375 69.09375 5.40625 69.5 
L 4.40625 69 
C 4.703125 59.484375 4.703125 59.484375 4.703125 58.484375 
C 4.703125 57.375 4.703125 57.375 4.40625 48.234375 
L 7.40625 48.234375 
L 8.09375 53.859375 
C 8.90625 60.09375 9.59375 60.890625 14.203125 60.890625 
L 40.90625 60.890625 
C 36.90625 52.65625 33.796875 46.8125 30 40.6875 
z
" id="URW_Palladio_L_Roman-55"/>
       </defs>
       <use transform="scale(0.996264)" xlink:href="#URW_Palladio_L_Roman-48"/>
       <use transform="translate(49.8132 0)scale(0.996264)" xlink:href="#URW_Palladio_L_Roman-46"/>
       <use transform="translate(74.719801 0)scale(0.996264)" xlink:href="#URW_Palladio_L_Roman-48"/>
       <use transform="translate(124.533001 0)scale(0.996264)" xlink:href="#URW_Palladio_L_Roman-48"/>
       <use transform="translate(174.346202 0)scale(0.996264)" xlink:href="#URW_Palladio_L_Roman-55"/>
      </g>
     </g>
    </g>
    <g id="ytick_3">
     <g id="line2d_19">
      <path clip-path="url(#p7b5447ea48)" d="M 51.5018 158.870481 
L 386.3018 158.870481 
" style="fill:none;stroke:#696969;stroke-linecap:square;stroke-width:0.8;"/>
     </g>
     <g id="line2d_20">
      <g>
       <use style="fill:#ffffff;stroke:#ffffff;stroke-width:0.8;" x="51.5018" xlink:href="#mb5ef07764a" y="158.870481"/>
      </g>
     </g>
     <g id="text_11">
      <!-- $\mathdefault{0.008}$ -->
      <g style="fill:#ffffff;" transform="translate(22.08586 162.4346)scale(0.1 -0.1)">
       <use transform="scale(0.996264)" xlink:href="#URW_Palladio_L_Roman-48"/>
       <use transform="translate(49.8132 0)scale(0.996264)" xlink:href="#URW_Palladio_L_Roman-46"/>
       <use transform="translate(74.719801 0)scale(0.996264)" xlink:href="#URW_Palladio_L_Roman-48"/>
       <use transform="translate(124.533001 0)scale(0.996264)" xlink:href="#URW_Palladio_L_Roman-48"/>
       <use transform="translate(174.346202 0)scale(0.996264)" xlink:href="#URW_Palladio_L_Roman-56"/>
      </g>
     </g>
    </g>
    <g id="ytick_4">
     <g id="line2d_21">
      <path clip-path="url(#p7b5447ea48)" d="M 51.5018 129.058926 
L 386.3018 129.058926 
" style="fill:none;stroke:#696969;stroke-linecap:square;stroke-width:0.8;"/>
     </g>
     <g id="line2d_22">
      <g>
       <use style="fill:#ffffff;stroke:#ffffff;stroke-width:0.8;" x="51.5018" xlink:href="#mb5ef07764a" y="129.058926"/>
      </g>
     </g>
     <g id="text_12">
      <!-- $\mathdefault{0.009}$ -->
      <g style="fill:#ffffff;" transform="translate(22.08586 132.623045)scale(0.1 -0.1)">
       <defs>
        <path d="M 9.59375 -2 
C 20.703125 1.609375 25.5 3.9375 30.90625 8.59375 
C 40.59375 16.984375 45.703125 28.59375 45.703125 41.9375 
C 45.703125 58.734375 37.59375 69 24.40625 69 
C 11.59375 69 2 59.03125 2 45.703125 
C 2 34.28125 9.5 25.890625 19.90625 25.890625 
C 23.296875 25.890625 27.203125 26.984375 29 28.484375 
L 36 34.28125 
C 35.203125 17.390625 24.296875 4.953125 6.203125 0.5 
L 6.203125 -0.3125 
z
M 24 65.6875 
C 28.5 65.6875 31.796875 63.796875 34 59.828125 
C 35.796875 56.640625 37 51.78125 37 47.296875 
C 37 38.15625 31.703125 32 24 32 
C 16 32 10.59375 39.046875 10.59375 49.390625 
C 10.59375 59.421875 15.796875 65.6875 24 65.6875 
z
" id="URW_Palladio_L_Roman-57"/>
       </defs>
       <use transform="scale(0.996264)" xlink:href="#URW_Palladio_L_Roman-48"/>
       <use transform="translate(49.8132 0)scale(0.996264)" xlink:href="#URW_Palladio_L_Roman-46"/>
       <use transform="translate(74.719801 0)scale(0.996264)" xlink:href="#URW_Palladio_L_Roman-48"/>
       <use transform="translate(124.533001 0)scale(0.996264)" xlink:href="#URW_Palladio_L_Roman-48"/>
       <use transform="translate(174.346202 0)scale(0.996264)" xlink:href="#URW_Palladio_L_Roman-57"/>
      </g>
     </g>
    </g>
    <g id="ytick_5">
     <g id="line2d_23">
      <path clip-path="url(#p7b5447ea48)" d="M 51.5018 99.247371 
L 386.3018 99.247371 
" style="fill:none;stroke:#696969;stroke-linecap:square;stroke-width:0.8;"/>
     </g>
     <g id="line2d_24">
      <g>
       <use style="fill:#ffffff;stroke:#ffffff;stroke-width:0.8;" x="51.5018" xlink:href="#mb5ef07764a" y="99.247371"/>
      </g>
     </g>
     <g id="text_13">
      <!-- $\mathdefault{0.010}$ -->
      <g style="fill:#ffffff;" transform="translate(22.08586 102.81149)scale(0.1 -0.1)">
       <use transform="scale(0.996264)" xlink:href="#URW_Palladio_L_Roman-48"/>
       <use transform="translate(49.8132 0)scale(0.996264)" xlink:href="#URW_Palladio_L_Roman-46"/>
       <use transform="translate(74.719801 0)scale(0.996264)" xlink:href="#URW_Palladio_L_Roman-48"/>
       <use transform="translate(124.533001 0)scale(0.996264)" xlink:href="#URW_Palladio_L_Roman-49"/>
       <use transform="translate(174.346202 0)scale(0.996264)" xlink:href="#URW_Palladio_L_Roman-48"/>
      </g>
     </g>
    </g>
    <g id="ytick_6">
     <g id="line2d_25">
      <path clip-path="url(#p7b5447ea48)" d="M 51.5018 69.435816 
L 386.3018 69.435816 
" style="fill:none;stroke:#696969;stroke-linecap:square;stroke-width:0.8;"/>
     </g>
     <g id="line2d_26">
      <g>
       <use style="fill:#ffffff;stroke:#ffffff;stroke-width:0.8;" x="51.5018" xlink:href="#mb5ef07764a" y="69.435816"/>
      </g>
     </g>
     <g id="text_14">
      <!-- $\mathdefault{0.011}$ -->
      <g style="fill:#ffffff;" transform="translate(22.08586 72.999935)scale(0.1 -0.1)">
       <use transform="scale(0.996264)" xlink:href="#URW_Palladio_L_Roman-48"/>
       <use transform="translate(49.8132 0)scale(0.996264)" xlink:href="#URW_Palladio_L_Roman-46"/>
       <use transform="translate(74.719801 0)scale(0.996264)" xlink:href="#URW_Palladio_L_Roman-48"/>
       <use transform="translate(124.533001 0)scale(0.996264)" xlink:href="#URW_Palladio_L_Roman-49"/>
       <use transform="translate(174.346202 0)scale(0.996264)" xlink:href="#URW_Palladio_L_Roman-49"/>
      </g>
     </g>
    </g>
    <g id="ytick_7">
     <g id="line2d_27">
      <path clip-path="url(#p7b5447ea48)" d="M 51.5018 39.624261 
L 386.3018 39.624261 
" style="fill:none;stroke:#696969;stroke-linecap:square;stroke-width:0.8;"/>
     </g>
     <g id="line2d_28">
      <g>
       <use style="fill:#ffffff;stroke:#ffffff;stroke-width:0.8;" x="51.5018" xlink:href="#mb5ef07764a" y="39.624261"/>
      </g>
     </g>
     <g id="text_15">
      <!-- $\mathdefault{0.012}$ -->
      <g style="fill:#ffffff;" transform="translate(22.08586 43.18838)scale(0.1 -0.1)">
       <use transform="scale(0.996264)" xlink:href="#URW_Palladio_L_Roman-48"/>
       <use transform="translate(49.8132 0)scale(0.996264)" xlink:href="#URW_Palladio_L_Roman-46"/>
       <use transform="translate(74.719801 0)scale(0.996264)" xlink:href="#URW_Palladio_L_Roman-48"/>
       <use transform="translate(124.533001 0)scale(0.996264)" xlink:href="#URW_Palladio_L_Roman-49"/>
       <use transform="translate(174.346202 0)scale(0.996264)" xlink:href="#URW_Palladio_L_Roman-50"/>
      </g>
     </g>
    </g>
    <g id="text_16">
     <!-- $\mathrm{d}\sigma/\mathrm{d}t$ (MeV)\textsuperscript{-4} -->
     <g style="fill:#ffffff;" transform="translate(15.276449 162.852631)rotate(-90)scale(0.1 -0.1)">
      <defs>
       <path d="M 41.203125 43.796875 
C 35.59375 46.1875 32.796875 47 29.296875 47 
C 26.59375 47 24.203125 46.390625 21.703125 45.09375 
L 12.90625 40.5 
C 7.203125 37.5 3.5 30.21875 3.5 21.75 
C 3.5 13.765625 6.203125 7.1875 11.09375 3.1875 
C 14.5 0.296875 19.203125 -1 25.703125 -1 
C 27.703125 -1 30 -0.609375 30.5 -0.203125 
L 41.59375 9.078125 
L 41.09375 0 
C 46 -0.109375 47.59375 0 48.796875 0 
C 49.59375 0 51 0 53.09375 -0.109375 
C 53.796875 0.09375 55.796875 0.09375 57.90625 0 
L 57.90625 3 
L 53.296875 3.296875 
C 49.90625 3.5 49.59375 4.1875 49.59375 10.5 
L 49.59375 72.09375 
L 48.703125 72.890625 
C 44.296875 71.203125 41 70.390625 33.09375 69.203125 
L 33.09375 66.390625 
L 38.703125 66.390625 
C 40.5 66.390625 41.203125 65.296875 41.203125 62.296875 
z
M 41.203125 22.25 
C 41.203125 15.765625 41 14.765625 39.703125 12.46875 
C 36.90625 7.78125 32 4.6875 27.296875 4.6875 
C 18.5 4.6875 12.203125 13.171875 12.203125 25.03125 
C 12.203125 35.90625 17.59375 42.296875 26.59375 42.296875 
C 30.40625 42.296875 34.40625 41 37.90625 38.59375 
C 40 37.203125 41.203125 35.90625 41.203125 35.109375 
z
" id="URW_Palladio_L_Roman-100"/>
       <path d="M 58.09375 49.1875 
C 55.40625 48.296875 50.796875 47.59375 47.5 47.59375 
C 44.59375 47.59375 39.59375 47.59375 36.90625 47.6875 
C 33.796875 47.796875 30.296875 48 27.90625 48 
C 23.5 48 19.296875 46.484375 14.90625 43.5 
C 6.40625 37.734375 1.703125 27.609375 1.703125 15.203125 
C 1.703125 2.796875 6.296875 -1 12.796875 -1 
C 17.203125 -1 21.296875 1 26.09375 5.484375 
C 30.40625 9.546875 34.796875 15.796875 37.703125 22.0625 
C 40.203125 27.3125 42 34.0625 42 38.234375 
C 42 39.53125 41.796875 40.71875 41.5 41.8125 
C 44.796875 41.609375 47.59375 41.609375 49.796875 41.609375 
C 51.59375 41.609375 53.796875 42.40625 55.40625 43 
C 56.5 45.09375 56.90625 45.59375 58.796875 48 
z
M 24 44.1875 
C 30.09375 44.1875 35.5 43.203125 35.5 35.453125 
C 35.5 20.671875 25.796875 4 17 4 
C 12.09375 4 9.296875 8.5625 9.296875 15.109375 
C 9.296875 26.921875 13.296875 38.640625 18.09375 42.5 
C 19.40625 43.59375 21.59375 44.1875 24 44.1875 
z
" id="Pazo_Math_Italic-115"/>
       <path d="M 51.90625 72.59375 
L 45.90625 72.59375 
L 8.703125 -11.90625 
L 14.703125 -11.90625 
z
" id="URW_Palladio_L_Roman-47"/>
       <path d="M 28.203125 21.796875 
L 31.203125 28.484375 
L 30.703125 29 
L 4.40625 29 
L 1.703125 22.296875 
L 2.203125 21.796875 
z
" id="URW_Palladio_L_Roman-45"/>
      </defs>
      <use transform="scale(0.996264)" xlink:href="#URW_Palladio_L_Roman-100"/>
      <use transform="translate(62.11693 0)scale(0.996264)" xlink:href="#Pazo_Math_Italic-115"/>
      <use transform="translate(121.195313 0)scale(0.996264)" xlink:href="#URW_Palladio_L_Roman-47"/>
      <use transform="translate(182.814218 0)scale(0.996264)" xlink:href="#URW_Palladio_L_Roman-100"/>
      <use transform="translate(244.931148 0)scale(0.996264)" xlink:href="#URW_Palladio_L_Italic-116"/>
      <use transform="translate(304.25773 0)scale(0.996264)" xlink:href="#URW_Palladio_L_Roman-40"/>
      <use transform="translate(337.43296 0)scale(0.996264)" xlink:href="#URW_Palladio_L_Roman-77"/>
      <use transform="translate(431.679162 0)scale(0.996264)" xlink:href="#URW_Palladio_L_Roman-101"/>
      <use transform="translate(479.399457 0)scale(0.996264)" xlink:href="#URW_Palladio_L_Roman-86"/>
      <use transform="translate(551.329441 0)scale(0.996264)" xlink:href="#URW_Palladio_L_Roman-41"/>
      <use transform="translate(584.504671 36.164371)scale(0.757155)" xlink:href="#URW_Palladio_L_Roman-45"/>
      <use transform="translate(609.717663 36.164371)scale(0.757155)" xlink:href="#URW_Palladio_L_Roman-52"/>
     </g>
    </g>
   </g>
   <g id="line2d_29">
    <path clip-path="url(#p7b5447ea48)" d="M 66.719982 31.637512 
L 70.376001 47.792952 
L 74.032021 62.912278 
L 77.688041 77.053409 
L 81.34406 90.270621 
L 85.00008 102.614801 
L 88.6561 114.133694 
L 92.312119 124.872124 
L 95.968139 134.872193 
L 99.31949 143.424133 
L 102.670842 151.41766 
L 106.022193 158.879947 
L 109.373544 165.836704 
L 112.724896 172.312268 
L 116.076247 178.329683 
L 119.427598 183.91078 
L 122.77895 189.076248 
L 126.130301 193.845703 
L 129.481652 198.237752 
L 132.833004 202.270049 
L 136.184355 205.959352 
L 139.535706 209.321574 
L 142.887058 212.37183 
L 146.238409 215.124485 
L 149.58976 217.593192 
L 152.941112 219.790935 
L 156.292463 221.730066 
L 159.643815 223.422335 
L 162.995166 224.878928 
L 166.346517 226.110497 
L 170.002537 227.209293 
L 173.658557 228.064873 
L 177.314576 228.689118 
L 180.970596 229.093303 
L 184.931284 229.295242 
L 188.891972 229.264374 
L 192.85266 229.012906 
L 197.118016 228.508623 
L 201.383372 227.775516 
L 205.953397 226.750713 
L 210.523421 225.492871 
L 215.398114 223.910067 
L 220.272807 222.093976 
L 225.452168 219.92546 
L 230.936198 217.379317 
L 236.724896 214.432766 
L 242.818262 211.065672 
L 249.216296 207.260711 
L 255.918999 203.003479 
L 262.92637 198.282543 
L 270.238409 193.089448 
L 278.159785 187.186692 
L 286.690498 180.542474 
L 295.830547 173.13172 
L 305.579932 164.936546 
L 316.243323 155.678105 
L 328.125387 145.055767 
L 341.226124 133.037711 
L 356.154871 119.034111 
L 371.083618 104.782594 
L 371.083618 104.782594 
" style="fill:none;stroke:#87cefa;stroke-linecap:square;stroke-width:1.5;"/>
   </g>
   <g id="patch_3">
    <path d="M 51.5018 239.193876 
L 51.5018 21.753876 
" style="fill:none;stroke:#ffffff;stroke-linecap:square;stroke-linejoin:miter;stroke-width:0.8;"/>
   </g>
   <g id="patch_4">
    <path d="M 386.3018 239.193876 
L 386.3018 21.753876 
" style="fill:none;stroke:#ffffff;stroke-linecap:square;stroke-linejoin:miter;stroke-width:0.8;"/>
   </g>
   <g id="patch_5">
    <path d="M 51.5018 239.193876 
L 386.3018 239.193876 
" style="fill:none;stroke:#ffffff;stroke-linecap:square;stroke-linejoin:miter;stroke-width:0.8;"/>
   </g>
   <g id="patch_6">
    <path d="M 51.5018 21.753876 
L 386.3018 21.753876 
" style="fill:none;stroke:#ffffff;stroke-linecap:square;stroke-linejoin:miter;stroke-width:0.8;"/>
   </g>
   <g id="text_17">
    <!-- $\mathrm{d}\sigma/\mathrm{d}t$ at medium collision energy -->
    <g style="fill:#ffffff;" transform="translate(128.551572 15.753876)scale(0.12 -0.12)">
     <defs>
      <path d="M 32.40625 8.5 
L 31.90625 0 
C 38.40625 0 38.40625 0 39.703125 0 
C 40.203125 0.296875 42.703125 0.1875 47.09375 0 
L 47.09375 3 
L 43.203125 3.1875 
C 40.796875 3.296875 40.40625 4.09375 40.40625 9 
L 40.40625 27.359375 
C 40.40625 42 36.203125 47.296875 24.59375 47.296875 
C 20.296875 47.296875 16.296875 46.1875 12.5 43.890625 
L 7.203125 40.6875 
L 7.203125 34.171875 
L 9.796875 33.46875 
L 11.09375 36.578125 
C 13.203125 41.28125 14.203125 42 18.796875 42 
C 28.203125 42 32.09375 38.28125 32.40625 29.15625 
L 22.5 27.359375 
C 8.90625 24.84375 3.203125 20.140625 3.203125 11.40625 
C 3.203125 3.5 7.90625 -1 15.796875 -1 
C 17.59375 -1 19.296875 -0.703125 20 -0.203125 
z
M 32.40625 12.59375 
C 29.5 8.5 23.203125 4.6875 19.296875 4.6875 
C 15.296875 4.6875 11.796875 8.390625 11.796875 12.6875 
C 11.796875 16.390625 13.796875 19.890625 16.796875 21.796875 
C 19.296875 23.296875 24.796875 24.6875 32.40625 25.796875 
z
" id="URW_Palladio_L_Roman-97"/>
      <path d="M 9.796875 38.390625 
L 9.796875 9.59375 
C 9.796875 2.1875 13.09375 -1 20.796875 -1 
C 23.09375 -1 25.5 -0.5 26.09375 0.1875 
L 30.90625 5.5 
L 29.59375 7.1875 
C 27.09375 5.796875 25.59375 5.296875 23.703125 5.296875 
C 19.796875 5.296875 18.203125 7.296875 18.203125 12.1875 
L 18.203125 38.390625 
L 31 38.390625 
L 31.90625 43.796875 
L 18.203125 43.1875 
L 18.203125 47 
C 18.203125 51.203125 18.5 54.796875 19.296875 61.203125 
L 18.09375 62.296875 
C 15.703125 60.796875 12.703125 59.5 9.59375 58.5 
C 9.90625 55.5 10 53.59375 10 50.59375 
L 10 43.59375 
L 2.203125 40.09375 
L 2.203125 38 
z
" id="URW_Palladio_L_Roman-116"/>
      <path d="M 1.796875 40.296875 
L 5.5 40.296875 
C 9.5 40.296875 9.90625 39.59375 9.90625 33 
L 9.90625 10.5 
C 9.90625 4.1875 9.59375 3.5 6.203125 3.296875 
L 1.59375 3 
L 1.59375 0 
C 11.203125 0 11.5 0 14.296875 0 
C 17.09375 0.296875 19.703125 0.1875 26.203125 0 
L 26.203125 3 
L 22 3.296875 
C 18.59375 3.484375 18.296875 4.1875 18.296875 10.46875 
L 18.296875 31.609375 
C 18.296875 36.109375 24.90625 41 30.90625 41 
C 36.296875 41 40 35.90625 40 28.328125 
L 40 10.46875 
C 40 4.1875 39.703125 3.484375 36.296875 3.296875 
L 31.703125 3 
L 31.703125 0 
C 41.703125 0 41.703125 0 44.203125 0 
C 46.703125 0.296875 46.703125 0.296875 56.703125 0 
L 56.703125 3 
L 52.09375 3.296875 
C 48.703125 3.484375 48.40625 4.1875 48.40625 10.46875 
L 48.40625 31.609375 
C 48.40625 36.109375 55 41 61 41 
C 66.40625 41 70.09375 35.90625 70.09375 28.328125 
L 70.09375 0 
C 76.203125 0 76.296875 0 78 0 
C 79.296875 0.296875 79.296875 0.296875 86.90625 0 
L 86.90625 3 
L 82.203125 3.296875 
C 78.796875 3.484375 78.5 4.1875 78.5 10.46875 
L 78.5 31.015625 
C 78.5 40.890625 72.703125 47.09375 63.5 47.09375 
C 60 47.09375 57.09375 46.1875 55.296875 44.59375 
L 47.703125 37.796875 
C 44.5 44.390625 40.40625 47.09375 33.5 47.09375 
C 29.796875 47.09375 27 46.1875 25.203125 44.59375 
L 18.296875 38.203125 
L 18.296875 46.6875 
L 17.40625 47 
C 12.296875 44.890625 7.09375 43.484375 1.796875 42.890625 
z
" id="URW_Palladio_L_Roman-109"/>
      <path d="M 18.796875 46.59375 
L 17.90625 47 
C 12.796875 44.890625 7.59375 43.5 2.296875 42.90625 
L 2.296875 40.125 
L 6 40.125 
C 10 40.125 10.40625 39.421875 10.40625 32.859375 
L 10.40625 10.453125 
C 10.40625 4.1875 10.09375 3.484375 6.703125 3.296875 
L 2.09375 3 
L 2.09375 0 
C 12.09375 0 12.09375 0 14.59375 0 
C 17.09375 0.296875 17.09375 0.296875 27.09375 0 
L 27.09375 3 
L 22.5 3.296875 
C 19.09375 3.5 18.796875 4.1875 18.796875 10.484375 
z
M 14.203125 69 
C 11.203125 69 8.59375 66.390625 8.59375 63.390625 
C 8.59375 60.484375 11.203125 57.890625 14.09375 57.890625 
C 17 57.890625 19.703125 60.484375 19.703125 63.390625 
C 19.703125 66.1875 17 69 14.203125 69 
z
" id="URW_Palladio_L_Roman-105"/>
      <path d="M 50.296875 46.59375 
L 49.40625 47 
C 44.296875 44.890625 39.09375 43.5 33.796875 42.890625 
L 33.796875 40.109375 
L 37.5 40.109375 
C 41.5 40.109375 41.90625 39.40625 41.90625 32.828125 
L 41.90625 16.5625 
C 41.90625 14.375 40.5 11.578125 38.203125 9.28125 
C 35.40625 6.484375 32.203125 5.09375 28.296875 5.09375 
C 24.796875 5.09375 22 6.1875 20.40625 8.078125 
C 19 9.6875 18.296875 12.765625 18.296875 17.15625 
L 18.296875 46.59375 
L 17.40625 47 
C 12.296875 44.890625 7.09375 43.5 1.796875 42.890625 
L 1.796875 40.109375 
L 5.5 40.109375 
C 9.5 40.109375 9.90625 39.40625 9.90625 32.828125 
L 9.90625 16.0625 
C 9.90625 9.078125 10.5 5.984375 12.296875 3.5 
C 14.5 0.5 18.296875 -1 24 -1 
C 28.5 -0.90625 32.5 0.5 35.203125 3 
L 41.90625 9.1875 
C 41.90625 6.296875 41.796875 4.6875 41.5 0 
C 48.203125 0 48.296875 0 49.796875 0 
C 51.203125 0.296875 51.203125 0.296875 58.09375 0 
L 58.09375 3 
L 54 3.296875 
C 50.59375 3.5 50.296875 4.09375 50.296875 10.5 
z
" id="URW_Palladio_L_Roman-117"/>
      <path d="M 39.90625 31.171875 
C 39.90625 35.78125 40.40625 39.890625 41.296875 43.484375 
C 37.296875 45.890625 33.796875 47 29.703125 47 
C 24.90625 47 19.296875 45.09375 13.296875 41.296875 
C 6.296875 36.875 2.59375 29.859375 2.59375 21.046875 
C 2.59375 7.5 12.09375 -2 25.5 -2 
C 30.703125 -2 38.203125 -0.109375 39.203125 1.390625 
L 41.296875 4.59375 
L 40.296875 6.09375 
C 36.59375 4.09375 33.40625 3.1875 29.796875 3.1875 
C 18.703125 3.1875 11.40625 11.8125 11.40625 25.046875 
C 11.40625 35.78125 16.40625 41.796875 25.40625 41.796875 
C 29.796875 41.796875 34.59375 39.796875 36.40625 37.28125 
L 37.09375 31.171875 
z
" id="URW_Palladio_L_Roman-99"/>
      <path d="M 27.90625 47 
C 13.296875 47 3.203125 36.671875 3.203125 21.734375 
C 3.203125 7.609375 12.09375 -2 25 -2 
C 40.40625 -2 51.40625 8.703125 51.40625 23.75 
C 51.40625 37.28125 41.59375 47 27.90625 47 
z
M 26.09375 43.6875 
C 35.296875 43.6875 42.09375 33.671875 42.09375 20.03125 
C 42.09375 8.515625 37 1.296875 28.90625 1.296875 
C 19.09375 1.296875 12.5 10.921875 12.5 25.140625 
C 12.5 37.171875 17.296875 43.6875 26.09375 43.6875 
z
" id="URW_Palladio_L_Roman-111"/>
      <path d="M 2.296875 66.390625 
L 7.90625 66.390625 
C 9.703125 66.390625 10.40625 65.296875 10.40625 62.296875 
L 10.40625 10.5 
C 10.40625 4.1875 10.09375 3.5 6.703125 3.296875 
L 2.09375 3 
L 2.09375 0 
C 12.09375 0 12.09375 0 14.59375 0 
C 17.09375 0.296875 17.09375 0.296875 27.09375 0 
L 27.09375 3 
L 22.5 3.296875 
C 19.09375 3.5 18.796875 4.1875 18.796875 10.5 
L 18.796875 72.09375 
L 17.90625 72.890625 
C 13.5 71.203125 10.203125 70.390625 2.296875 69.203125 
z
" id="URW_Palladio_L_Roman-108"/>
      <path d="M 4.09375 14.328125 
C 4.09375 7.40625 3.796875 4.40625 3 0.390625 
C 8.203125 -1.3125 12.09375 -2 16.703125 -2 
C 29.796875 -2 39.09375 5 39.09375 14.828125 
C 39.09375 17.9375 38.203125 20.234375 36.296875 22.234375 
C 33.703125 24.75 30.40625 25.953125 21.59375 27.65625 
C 13.40625 29.25 10.703125 31.265625 10.703125 35.875 
C 10.703125 40.890625 14.203125 43.6875 20.296875 43.6875 
C 27 43.6875 32.09375 40.1875 32.09375 35.46875 
L 32.09375 33.171875 
L 34.90625 33.171875 
C 35 38.984375 35.09375 41.390625 35.40625 44.484375 
C 30.09375 46.296875 26.5 47 22.40625 47 
C 10.796875 47 3.703125 41.484375 3.703125 32.46875 
C 3.703125 27.65625 5.90625 24.25 10.5 22.140625 
C 13.203125 20.9375 18.5 19.328125 25.296875 17.828125 
C 29.796875 16.828125 31.703125 14.71875 31.703125 10.90625 
C 31.703125 5.5 26.703125 1.6875 19.59375 1.6875 
C 12.296875 1.6875 7.09375 5.203125 7.09375 10.21875 
L 7.09375 14.328125 
z
" id="URW_Palladio_L_Roman-115"/>
      <path d="M 41 0 
C 47.09375 0 47.203125 0 48.90625 0 
C 50.296875 0.296875 50.296875 0.296875 57.203125 0 
L 57.203125 3 
L 53.09375 3.296875 
C 49.703125 3.484375 49.40625 4.09375 49.40625 10.46875 
L 49.40625 29.71875 
C 49.40625 41.390625 43.90625 47.09375 32.703125 47.09375 
C 29 47.09375 26.90625 46.390625 24.796875 44.59375 
L 17.203125 38 
L 17.203125 46.6875 
L 16.296875 47 
C 11.203125 44.890625 6 43.5 0.703125 42.90625 
L 0.703125 40.125 
L 4.40625 40.125 
C 8.40625 40.125 8.796875 39.421875 8.796875 32.859375 
L 8.796875 10.453125 
C 8.796875 4.1875 8.5 3.484375 5.09375 3.296875 
L 0.59375 3 
L 0.59375 0 
C 7.40625 -0.109375 10.09375 0 13 0 
C 15.90625 0.296875 18.59375 0.1875 25.40625 0 
L 25.40625 3 
L 20.90625 3.296875 
C 17.5 3.484375 17.203125 4.1875 17.203125 10.46875 
L 17.203125 31.609375 
C 17.203125 36.109375 23.796875 41 29.90625 41 
C 36.59375 41 41 36 41 28.328125 
z
" id="URW_Palladio_L_Roman-110"/>
      <path d="M 2.296875 40.296875 
L 6 40.296875 
C 10 40.296875 10.40625 39.59375 10.40625 33 
L 10.40625 10.5 
C 10.40625 4.1875 10.09375 3.5 6.703125 3.296875 
L 2.09375 3 
L 2.09375 0 
C 9.296875 -0.109375 11.90625 0 14.40625 0 
C 16.40625 0.296875 16.40625 0.296875 28.703125 0 
L 28.703125 3 
L 23.5 3.296875 
C 19 3.59375 18.796875 3.890625 18.796875 10.453125 
L 18.796875 27.546875 
C 18.796875 33.515625 22.796875 38.484375 27.703125 38.484375 
C 30.703125 38.484375 32.796875 37.09375 34.40625 33.921875 
L 36.5 33.921875 
L 37.40625 45.890625 
C 36.296875 46.59375 34.5 47 32.703125 47 
C 29.703125 47 26.5 45.390625 24.40625 42.890625 
L 18.796875 36.3125 
L 18.796875 46.59375 
L 17.90625 47 
C 12.796875 44.890625 7.59375 43.484375 2.296875 42.890625 
z
" id="URW_Palladio_L_Roman-114"/>
      <path d="M 51.90625 38.3125 
L 54.40625 42.390625 
L 54 43.59375 
L 39.796875 43.1875 
C 36.09375 46.1875 32.5 47.390625 27.59375 47.390625 
C 23.203125 47.390625 18.09375 46 14 43.59375 
C 8.40625 40.40625 5.5 35.53125 5.5 29.453125 
C 5.5 22.078125 10.09375 16.984375 17.5 16.1875 
L 9.59375 9.96875 
C 8.59375 8.4375 8.09375 7.109375 8.09375 5.59375 
C 8.09375 2.796875 9.90625 1.1875 14.703125 -0.203125 
L 6 -4.921875 
C 4.59375 -5.734375 3.203125 -9.4375 3.203125 -12.5625 
C 3.203125 -21.6875 12.09375 -28 24.796875 -28 
C 39.90625 -28 51.796875 -18.484375 51.796875 -6.234375 
C 51.796875 1 47 6 40 6 
L 24 6 
C 18.796875 6 16.40625 7.21875 16.40625 9.96875 
C 16.40625 11.296875 17.203125 12.421875 19.796875 14.671875 
C 20.40625 15.1875 20.59375 15.390625 21 15.796875 
C 22 15.6875 22.59375 15.59375 23.40625 15.59375 
C 27.703125 15.59375 33 17.484375 37.09375 20.390625 
C 41.59375 23.671875 43.796875 27.65625 43.796875 32.9375 
C 43.796875 34.921875 43.5 36.21875 42.703125 38.3125 
z
M 24 44 
C 30.796875 44 35.40625 38.40625 35.40625 29.953125 
C 35.40625 23.46875 31.203125 19 25.09375 19 
C 18.40625 19 13.90625 24.171875 13.90625 31.84375 
C 13.90625 39.515625 17.59375 44 24 44 
z
M 28.703125 -1 
C 40 -1 43.90625 -3.3125 43.90625 -9.84375 
C 43.90625 -18.484375 36 -24.90625 25.5 -24.90625 
C 16.796875 -24.90625 10.796875 -19.78125 10.796875 -12.359375 
C 10.796875 -7.84375 13.40625 -3.71875 17.40625 -2.015625 
C 19 -1.203125 21.796875 -1 28.703125 -1 
z
" id="URW_Palladio_L_Roman-103"/>
      <path d="M 29.703125 8.890625 
C 27.5 12.6875 26.40625 15 24.59375 19.890625 
L 18.203125 36.703125 
C 17.59375 38.390625 17.203125 39.890625 17.203125 40.890625 
C 17.203125 42.296875 18.296875 43.09375 20.59375 43.203125 
L 24.40625 43.390625 
L 24.40625 46.203125 
C 14.703125 45.890625 14.703125 45.890625 12.796875 45.890625 
C 10.90625 45.890625 10.90625 45.890625 1.203125 46.203125 
L 1.203125 43.390625 
L 3 43.203125 
C 5.5 42.890625 6.703125 41.796875 8.203125 38.296875 
L 19.09375 12.09375 
C 21.90625 5.296875 22.90625 2.890625 24.703125 -2.109375 
L 22.40625 -8.203125 
C 19.203125 -16.609375 15.296875 -21.3125 11.5 -21.3125 
C 9.90625 -21.3125 8.09375 -20.5 6.40625 -19 
L 5.09375 -19 
L 2.703125 -26.5 
C 4.59375 -27.5 6.203125 -28 8.09375 -28 
C 14.796875 -28 19.09375 -24.40625 22.90625 -15.703125 
L 43.203125 31.09375 
C 47.203125 40.203125 49.09375 42.890625 51.59375 43.203125 
L 54.40625 43.390625 
L 54.40625 46.203125 
C 46.5 45.890625 46.5 45.890625 44.90625 45.890625 
C 43.296875 45.890625 43.296875 45.890625 35.40625 46.203125 
L 35.40625 43.390625 
L 38 43.203125 
C 40.796875 43 42.203125 42.09375 42.203125 40.703125 
C 42.203125 40 42 39.09375 41.59375 38.09375 
z
" id="URW_Palladio_L_Roman-121"/>
     </defs>
     <use transform="scale(0.996264)" xlink:href="#URW_Palladio_L_Roman-100"/>
     <use transform="translate(62.11693 0)scale(0.996264)" xlink:href="#Pazo_Math_Italic-115"/>
     <use transform="translate(121.195313 0)scale(0.996264)" xlink:href="#URW_Palladio_L_Roman-47"/>
     <use transform="translate(182.814218 0)scale(0.996264)" xlink:href="#URW_Palladio_L_Roman-100"/>
     <use transform="translate(244.931148 0)scale(0.996264)" xlink:href="#URW_Palladio_L_Italic-116"/>
     <use transform="translate(304.25773 0)scale(0.996264)" xlink:href="#URW_Palladio_L_Roman-97"/>
     <use transform="translate(354.070931 0)scale(0.996264)" xlink:href="#URW_Palladio_L_Roman-116"/>
     <use transform="translate(411.454619 0)scale(0.996264)" xlink:href="#URW_Palladio_L_Roman-109"/>
     <use transform="translate(499.424293 0)scale(0.996264)" xlink:href="#URW_Palladio_L_Roman-101"/>
     <use transform="translate(547.144588 0)scale(0.996264)" xlink:href="#URW_Palladio_L_Roman-100"/>
     <use transform="translate(608.016219 0)scale(0.996264)" xlink:href="#URW_Palladio_L_Roman-105"/>
     <use transform="translate(637.006581 0)scale(0.996264)" xlink:href="#URW_Palladio_L_Roman-117"/>
     <use transform="translate(697.080315 0)scale(0.996264)" xlink:href="#URW_Palladio_L_Roman-109"/>
     <use transform="translate(809.95659 0)scale(0.996264)" xlink:href="#URW_Palladio_L_Roman-99"/>
     <use transform="translate(854.190158 0)scale(0.996264)" xlink:href="#URW_Palladio_L_Roman-111"/>
     <use transform="translate(908.585739 0)scale(0.996264)" xlink:href="#URW_Palladio_L_Roman-108"/>
     <use transform="translate(937.5761 0)scale(0.996264)" xlink:href="#URW_Palladio_L_Roman-108"/>
     <use transform="translate(966.566462 0)scale(0.996264)" xlink:href="#URW_Palladio_L_Roman-105"/>
     <use transform="translate(995.556823 0)scale(0.996264)" xlink:href="#URW_Palladio_L_Roman-115"/>
     <use transform="translate(1037.798289 0)scale(0.996264)" xlink:href="#URW_Palladio_L_Roman-105"/>
     <use transform="translate(1066.788651 0)scale(0.996264)" xlink:href="#URW_Palladio_L_Roman-111"/>
     <use transform="translate(1121.184231 0)scale(0.996264)" xlink:href="#URW_Palladio_L_Roman-110"/>
     <use transform="translate(1204.072892 0)scale(0.996264)" xlink:href="#URW_Palladio_L_Roman-101"/>
     <use transform="translate(1251.793187 0)scale(0.996264)" xlink:href="#URW_Palladio_L_Roman-110"/>
     <use transform="translate(1309.775248 0)scale(0.996264)" xlink:href="#URW_Palladio_L_Roman-101"/>
     <use transform="translate(1357.495543 0)scale(0.996264)" xlink:href="#URW_Palladio_L_Roman-114"/>
     <use transform="translate(1395.05486 0)scale(0.996264)" xlink:href="#URW_Palladio_L_Roman-103"/>
     <use transform="translate(1450.446537 0)scale(0.996264)" xlink:href="#URW_Palladio_L_Roman-121"/>
    </g>
   </g>
   <g id="legend_1">
    <g id="patch_7">
     <path d="M 145.243013 61.643735 
L 292.560586 61.643735 
Q 296.016586 61.643735 296.016586 58.187735 
L 296.016586 33.849876 
Q 296.016586 30.393876 292.560586 30.393876 
L 145.243013 30.393876 
Q 141.787013 30.393876 141.787013 33.849876 
L 141.787013 58.187735 
Q 141.787013 61.643735 145.243013 61.643735 
z
" style="opacity:0.8;stroke:#cccccc;stroke-linejoin:miter;"/>
    </g>
    <g id="line2d_30">
     <path d="M 148.699013 43.829076 
L 183.259013 43.829076 
" style="fill:none;stroke:#87cefa;stroke-linecap:square;stroke-width:1.5;"/>
    </g>
    <g id="line2d_31"/>
    <g id="text_18">
     <!-- $s - m^2 = m^2$ -->
     <g style="fill:#ffffff;" transform="translate(197.083013 49.877076)scale(0.1728 -0.1728)">
      <defs>
       <path d="M 3.09375 14.8125 
C 2.59375 9.75 2 6.265625 0.90625 1.6875 
C 4.703125 -0.109375 8.09375 -1 11.59375 -1 
C 16.5 -1 21.09375 0.796875 26.203125 4.78125 
C 31.296875 8.75 33.40625 12.421875 33.40625 17.390625 
C 33.40625 22.75 30.203125 25.625 22.796875 27.015625 
L 18.5 27.8125 
C 12.5 28.90625 10.59375 30.59375 10.59375 34.65625 
C 10.59375 39.921875 15.09375 43.984375 20.796875 43.984375 
C 24.90625 43.984375 28.703125 42.203125 30.296875 39.53125 
L 30.296875 34.0625 
L 32.59375 34.0625 
C 33 37.546875 33.40625 40.21875 34.5 45.296875 
C 30.59375 47.1875 27.796875 48 24.5 48 
C 19.296875 48 13.203125 44.984375 8.40625 40.21875 
C 5.796875 37.546875 4.703125 35.0625 4.703125 31.484375 
C 4.703125 25.921875 7.796875 22.75 14.40625 21.453125 
L 20.703125 20.265625 
C 25.09375 19.46875 26.703125 17.6875 26.703125 13.8125 
C 26.703125 7.359375 22.09375 3 15 3 
C 11.5 3 8.40625 4.078125 5.59375 6.46875 
L 5.59375 14.8125 
z
" id="URW_Palladio_L_Italic-115"/>
       <path d="M 73 10.171875 
L 70.40625 8.46875 
C 67.5 6.578125 65.296875 5.484375 64.296875 5.484375 
C 63.59375 5.484375 63 6.375 63 7.484375 
C 63 8.46875 63.203125 9.375 63.703125 11.46875 
L 71.203125 41.109375 
C 71.59375 42.796875 71.90625 44.390625 71.90625 45.1875 
C 71.90625 46.890625 70.90625 48 69.296875 48 
C 66.40625 48 62.59375 46.1875 56.5 41.90625 
C 50.203125 37.40625 46.703125 33.921875 41.796875 27.03125 
L 44.796875 40.703125 
C 45.203125 42.703125 45.5 44.203125 45.5 44.890625 
C 45.5 46.796875 44.5 48 42.90625 48 
C 39.90625 48 35.296875 45.796875 29.796875 41.609375 
C 25.40625 38.203125 23.40625 36.109375 16.90625 27.328125 
L 20.203125 40.609375 
C 20.59375 42.203125 20.796875 43.703125 20.796875 44.890625 
C 20.796875 46.796875 19.90625 48 18.5 48 
C 16.40625 48 12.59375 45.890625 5.203125 40.609375 
L 2.40625 38.609375 
L 3.09375 36.609375 
L 6.296875 38.703125 
C 10 41 10.296875 41.203125 11 41.203125 
C 12.09375 41.203125 12.796875 40.203125 12.796875 38.703125 
C 12.796875 33.625 8.703125 14.359375 4.59375 0.09375 
L 4.90625 -1 
L 11.703125 0.5 
L 13.90625 10.671875 
C 16.296875 21.75 19 27.640625 24.5 33.625 
C 28.703125 38.203125 33.203125 41.203125 36 41.203125 
C 36.703125 41.203125 37.09375 40.40625 37.09375 39.109375 
C 37.09375 35.609375 34.90625 24.234375 30.796875 6.78125 
L 29.203125 0.09375 
L 29.703125 -1 
L 36.59375 0.5 
L 38.703125 11.171875 
C 40.296875 19.25 43.703125 26.734375 48.09375 31.625 
C 53.59375 37.703125 58.59375 41.203125 61.796875 41.203125 
C 62.59375 41.203125 63.09375 40.296875 63.09375 38.703125 
C 63.09375 36.3125 62.796875 34.921875 60.59375 26.234375 
C 59 19.953125 57.296875 13.96875 56.296875 10.578125 
C 55.40625 7.78125 55 5.1875 55 2.984375 
C 55 0.5 56.09375 -1 58 -1 
C 60.59375 -1 64.203125 1.09375 74 8.375 
z
" id="URW_Palladio_L_Italic-109"/>
       <path d="M 68.703125 32.984375 
C 70.203125 32.984375 72.09375 32.984375 72.09375 34.984375 
C 72.09375 37 70.203125 37 68.796875 37 
L 8.90625 37 
C 7.5 37 5.59375 37 5.59375 34.984375 
C 5.59375 32.984375 7.5 32.984375 9 32.984375 
z
M 68.796875 13 
C 70.203125 13 72.09375 13 72.09375 15 
C 72.09375 17 70.203125 17 68.703125 17 
L 9 17 
C 7.5 17 5.59375 17 5.59375 15 
C 5.59375 13 7.5 13 8.90625 13 
z
" id="CMR10-61"/>
      </defs>
      <use transform="scale(0.996264)" xlink:href="#URW_Palladio_L_Italic-115"/>
      <use transform="translate(60.617031 0)scale(1.038107)" xlink:href="#CMSY10-0"/>
      <use transform="translate(163.17578 0)scale(0.996264)" xlink:href="#URW_Palladio_L_Italic-109"/>
      <use transform="translate(241.930514 36.164371)scale(0.757155)" xlink:href="#URW_Palladio_L_Roman-50"/>
      <use transform="translate(309.205637 0)scale(1.038107)" xlink:href="#CMR10-61"/>
      <use transform="translate(420.066566 0)scale(0.996264)" xlink:href="#URW_Palladio_L_Italic-109"/>
      <use transform="translate(498.821299 36.164371)scale(0.757155)" xlink:href="#URW_Palladio_L_Roman-50"/>
     </g>
    </g>
   </g>
  </g>
 </g>
 <defs>
  <clipPath id="p7b5447ea48">
   <rect height="217.44" width="334.8" x="51.5018" y="21.753876"/>
  </clipPath>
 </defs>
</svg>
