<?xml version="1.0" encoding="UTF-8"?>
<svg xmlns="http://www.w3.org/2000/svg" xmlns:xlink="http://www.w3.org/1999/xlink" width="474pt" height="276pt" viewBox="0 0 474 276" version="1.1">
<defs>
<g transform="matrix(1, 0, 0, 1, 0, 0)" class="diagram"><g><g><image x="406.5" y="404" width="87" height="32" href="/latex/string?color=black&amp;mathMode=true&amp;string=p%20-%20k%27" xlink:href="/latex/string?color=black&amp;mathMode=true&amp;string=p%20-%20k%27"></image></g><g><g><path stroke="#87cefa" stroke-width="2" d="M 500 450 L 400 450"></path><polygon transform="rotate(270, 450, 450)" fill="#87cefa" points="450,442.5769251104191 456.42857142857144,457.4230748895809 443.57142857142856, 457.4230748895809"></polygon></g></g></g><g><g><image x="351.5" y="358" width="35" height="32" href="/latex/string?color=black&amp;mathMode=true&amp;string=p%27" xlink:href="/latex/string?color=black&amp;mathMode=true&amp;string=p%27"></image></g><g><g><path stroke="#87cefa" stroke-width="2" d="M 400 450 L 300 350"></path><polygon transform="rotate(315, 350, 400)" fill="#87cefa" points="350,392.5769251104191 356.42857142857144,407.4230748895809 343.57142857142856, 407.4230748895809"></polygon></g></g></g><g><g><image x="559.2132034355964" y="466.2867965644036" width="24" height="25" href="/latex/string?color=black&amp;mathMode=true&amp;string=p" xlink:href="/latex/string?color=black&amp;mathMode=true&amp;string=p"></image></g><g><g><path stroke="#87cefa" stroke-width="2" d="M 600 550 L 500 450"></path><polygon transform="rotate(315, 550, 500)" fill="#87cefa" points="550,492.5769251104191 556.4285714285714,507.4230748895809 543.5714285714286, 507.4230748895809"></polygon></g></g></g><g><g><image x="510.78679656440363" y="364.2867965644036" width="36" height="29" href="/latex/string?color=black&amp;mathMode=true&amp;string=k%27" xlink:href="/latex/string?color=black&amp;mathMode=true&amp;string=k%27"></image></g><g><g transform="matrix(0.7142857140972729, -0.7142857140972729, 0.7142857140972729, 0.7142857140972729, -178.5714283924093, 485.71428570486364)"><path stroke-width="2" stroke="#ffa07a" fill="none" d="M 500 450 C 510 420 510 480 520 450 S 530 480 540 450 S 550 480 560 450 S 570 480 580 450 S 590 480 600 450 S 610 480 620 450 S 630 480 640 450 "></path></g></g></g><g><g><image x="316.7867965644036" y="465.7867965644036" width="24" height="26" href="/latex/string?color=black&amp;mathMode=true&amp;string=k" xlink:href="/latex/string?color=black&amp;mathMode=true&amp;string=k"></image></g><g><g transform="matrix(0.7142857140972729, -0.7142857140972729, 0.7142857140972729, 0.7142857140972729, -307.142856982682, 371.4285714756818)"><path stroke-width="2" stroke="#ffa07a" fill="none" d="M 300 550 C 310 520 310 580 320 550 S 330 580 340 550 S 350 580 360 550 S 370 580 380 550 S 390 580 400 550 S 410 580 420 550 S 430 580 440 550 "></path></g></g></g><g><circle cx="400" cy="450" r="5" fill="black"></circle></g><g><circle cx="600" cy="550" r="5" fill="black"></circle></g><g><circle cx="500" cy="450" r="5" fill="black"></circle></g><g><circle cx="600" cy="350" r="5" fill="black"></circle></g><g><circle cx="300" cy="550" r="5" fill="black"></circle></g><g><circle cx="300" cy="350" r="5" fill="black"></circle></g></g>
</svg>
